<?xml version="1.0" encoding="UTF-8" standalone="no"?>
<!DOCTYPE svg PUBLIC "-//W3C//DTD SVG 1.1//EN" "http://www.w3.org/Graphics/SVG/1.1/DTD/svg11.dtd">
<svg width="100%" height="100%" viewBox="0 0 283 321" version="1.1" xmlns="http://www.w3.org/2000/svg" xmlns:xlink="http://www.w3.org/1999/xlink" xml:space="preserve" xmlns:serif="http://www.serif.com/" style="fill-rule:evenodd;clip-rule:evenodd;stroke-linejoin:round;stroke-miterlimit:2;">
    <g transform="matrix(1,0,0,1,-7617.71,-531.801)">
        <g transform="matrix(0.583309,0,0,0.357922,3156.13,358.232)">
            <g transform="matrix(3.58007,0,0,5.83449,0.761597,-4745.85)">
                <g transform="matrix(-0.795315,-9.7398e-17,1.14273e-16,-0.933109,3563.09,2022.01)">
                    <path d="M1709.1,1041.59C1767.05,1071.05 1791.76,1122.54 1794.05,1194.34C1737.41,1210.57 1680.78,1209.64 1624.14,1194.34C1624.16,1122.73 1646.12,1078.61 1709.1,1041.59Z" style="fill:rgb(174,41,15);"/>
                </g>
                <g transform="matrix(0.655297,0,0,0.655297,1090.55,242.896)">
                    <path d="M1716.83,1079L1749.6,1079L1749.6,1114.9L1716.83,1114.9L1716.83,1147.68L1680.93,1147.68L1680.93,1114.9L1648.15,1114.9L1648.15,1079L1680.93,1079L1680.93,1046.22L1716.83,1046.22L1716.83,1079Z" style="fill:white;"/>
                </g>
            </g>
        </g>
    </g>
</svg>
